<?xml version="1.0" encoding="UTF-8"?><svg id="Layer_1" xmlns="http://www.w3.org/2000/svg" xmlns:xlink="http://www.w3.org/1999/xlink" viewBox="0 0 500 500"><defs><filter id="drop-shadow-1" filterUnits="userSpaceOnUse"><feOffset dx="7" dy="7"/><feGaussianBlur result="blur" stdDeviation="5"/><feFlood flood-color="#000" flood-opacity=".75"/><feComposite in2="blur" operator="in"/><feComposite in="SourceGraphic"/></filter></defs><path d="M362.59,375c-11.97-2.02-23.16-3.87-34.33-5.79-10.35-1.78-20.67-3.74-31.05-5.36-2.11-.33-4.5,.24-6.59,.9-42.91,13.46-82.97,7.58-117.93-20.35-40.46-32.33-55.89-75.27-43.54-125.16,12.44-50.22,46.22-81.68,97.71-91.84,69.45-13.71,135.89,32.91,146.56,101.86,5.52,35.68-3.4,68.01-26.36,96.25-2.84,3.49-3.24,6.33-1.45,10.31,5.72,12.75,11.14,25.63,16.99,39.18Zm-38.25-124.22c.05-10.43-8.29-18.88-18.83-19.05-10.46-.17-19.15,8.19-19.29,18.57-.14,10.72,8.38,19.36,19.06,19.33,10.48-.03,19-8.46,19.05-18.86Zm-110.38,.15c.13-10.5-8.05-18.93-18.64-19.2-10.37-.27-19.29,8.14-19.54,18.41-.26,10.55,8.37,19.41,18.99,19.49,10.46,.08,19.06-8.31,19.19-18.71Zm36.2,18.69c10.35-.04,19.1-8.66,19.16-18.89,.06-10.24-8.57-18.86-19.02-19-10.61-.14-19.55,8.67-19.4,19.12,.15,10.3,8.88,18.81,19.25,18.77Z" fill="#fff" filter="url(#drop-shadow-1)"/></svg>